<svg width="8" height="5" viewBox="0 0 8 5" fill="none" xmlns="http://www.w3.org/2000/svg">
<path d="M4.5 4C4.5 3.72386 4.27614 3.5 4 3.5C3.72386 3.5 3.5 3.72386 3.5 4L4.5 4ZM3.64645 4.50355C3.84171 4.69882 4.15829 4.69882 4.35355 4.50355L7.53553 1.32157C7.7308 1.12631 7.7308 0.809728 7.53553 0.614466C7.34027 0.419204 7.02369 0.419204 6.82843 0.614466L4 3.44289L1.17157 0.614466C0.976311 0.419204 0.659728 0.419204 0.464466 0.614466C0.269204 0.809728 0.269204 1.12631 0.464466 1.32157L3.64645 4.50355ZM3.5 4L3.5 4.15L4.5 4.15L4.5 4L3.5 4Z" fill="#3C3C3C"/>
</svg>
