<svg width="25" height="24" viewBox="0 0 25 24" fill="none" xmlns="http://www.w3.org/2000/svg">
<path fill-rule="evenodd" clip-rule="evenodd" d="M9.97283 0.515652C11.2368 -0.171884 12.7631 -0.171884 14.0271 0.515652L21.3548 4.50154C22.7201 5.2442 23.57 6.674 23.57 8.22823V15.7718C23.57 17.326 22.7201 18.7558 21.3548 19.4985L14.0271 23.4843C12.7631 24.1719 11.2368 24.1719 9.97284 23.4843L2.64515 19.4985C1.27984 18.7558 0.429932 17.326 0.429932 15.7718L0.429932 8.22823C0.429932 6.674 1.27983 5.2442 2.64515 4.50154L9.97283 0.515652Z" fill="#2A5ADA"/>
<path fill-rule="evenodd" clip-rule="evenodd" d="M9.9729 0.515652C11.2369 -0.171884 12.7632 -0.171884 14.0272 0.515652L21.3548 4.50154C22.7202 5.2442 23.5701 6.674 23.5701 8.22823V15.7718C23.5701 17.326 22.7202 18.7558 21.3548 19.4985L14.0272 23.4843C12.7632 24.1719 11.2369 24.1719 9.9729 23.4843L2.64521 19.4985C1.2799 18.7558 0.429993 17.326 0.429993 15.7718L0.429993 8.22823C0.429993 6.674 1.2799 5.2442 2.64521 4.50154L9.9729 0.515652Z" fill="#26A17B"/>
<g clip-path="url(#clip0_1_2238)">
<path d="M12 21.6C17.302 21.6 21.6 17.302 21.6 12C21.6 6.69809 17.302 2.40002 12 2.40002C6.69809 2.40002 2.40002 6.69809 2.40002 12C2.40002 17.302 6.69809 21.6 12 21.6Z" fill="#26A17B"/>
<path fill-rule="evenodd" clip-rule="evenodd" d="M12.9732 12.9385V12.9373C12.9072 12.9421 12.567 12.9625 11.808 12.9625C11.202 12.9625 10.7754 12.9445 10.6254 12.9373V12.9391C8.2926 12.8365 6.5514 12.4303 6.5514 11.9443C6.5514 11.4589 8.2926 11.0527 10.6254 10.9483V12.5347C10.7778 12.5455 11.2146 12.5713 11.8182 12.5713C12.5424 12.5713 12.9054 12.5413 12.9732 12.5353V10.9495C15.3012 11.0533 17.0382 11.4595 17.0382 11.9443C17.0382 12.4303 15.3012 12.8353 12.9732 12.9385ZM12.9732 10.7845V9.36487H16.2216V7.20007H7.377V9.36487H10.6254V10.7839C7.9854 10.9051 6 11.4283 6 12.0547C6 12.6811 7.9854 13.2037 10.6254 13.3255V17.8747H12.9732V13.3243C15.609 13.2031 17.5896 12.6805 17.5896 12.0547C17.5896 11.4289 15.609 10.9063 12.9732 10.7845Z" fill="white"/>
</g>
<path d="M18.361 23.2125C21.6759 23.2125 24.361 20.5256 24.361 17.2125C24.361 13.8994 21.6759 11.2125 18.361 11.2125C15.046 11.2125 12.361 13.8994 12.361 17.2125C12.361 20.5256 15.0483 23.2125 18.361 23.2125Z" fill="#F54F51"/>
<path d="M21.736 16.135C21.4049 15.828 20.9452 15.3601 20.5727 15.0291L20.5498 15.0147C20.513 14.9859 20.4716 14.9619 20.4279 14.9451C19.5268 14.7772 15.3337 13.9927 15.2532 14.0023C15.2302 14.0047 15.2072 14.0143 15.1888 14.0263L15.1681 14.0431C15.1429 14.0695 15.1222 14.1006 15.1107 14.1366L15.1061 14.151V14.2302V14.2422C15.5773 15.5569 17.4417 19.8607 17.8095 20.8731C17.8325 20.9427 17.8739 21.0723 17.9521 21.0795H17.9704C18.0118 21.0795 18.1911 20.8419 18.1911 20.8419C18.1911 20.8419 21.3934 16.9603 21.7176 16.5477C21.759 16.4973 21.7957 16.4421 21.8279 16.3845C21.8371 16.3389 21.8325 16.2934 21.8164 16.2502C21.8003 16.207 21.7704 16.1662 21.736 16.135ZM19.0095 16.5885L20.375 15.4561L21.1773 16.195L19.0095 16.5885ZM18.4785 16.5141L16.1268 14.5853L19.9337 15.2882L18.4785 16.5141ZM18.69 17.0179L21.0969 16.6292L18.3452 19.9471L18.69 17.0179ZM15.8072 14.7796L18.2831 16.8787L17.9245 19.9495L15.8072 14.7796Z" fill="white"/>
<defs>
<clipPath id="clip0_1_2238">
<rect width="19.2" height="19.2" fill="white" transform="translate(2.40002 2.40002)"/>
</clipPath>
</defs>
</svg>
